<?xml version="1.0" encoding="UTF-8" standalone="no"?>
<!DOCTYPE svg PUBLIC "-//W3C//DTD SVG 1.1//EN"
 "http://www.w3.org/Graphics/SVG/1.1/DTD/svg11.dtd">
<!-- Generated by graphviz version 2.40.1 (20161225.0304)
 -->
<!-- Title: G Pages: 1 -->
<svg width="406pt" height="260pt"
 viewBox="0.00 0.00 405.51 260.00" xmlns="http://www.w3.org/2000/svg" xmlns:xlink="http://www.w3.org/1999/xlink">
<g id="graph0" class="graph" transform="scale(1 1) rotate(0) translate(4 256)">
<title>G</title>
<polygon fill="#ffffff" stroke="transparent" points="-4,4 -4,-256 401.5071,-256 401.5071,4 -4,4"/>
<!-- a -->
<g id="node1" class="node">
<title>a</title>
<ellipse fill="none" stroke="#000000" cx="209.8782" cy="-234" rx="27.2447" ry="18"/>
<text text-anchor="middle" x="209.8782" y="-229.8" font-family="Times,serif" font-size="14.00" fill="#000000">user</text>
</g>
<!-- b -->
<g id="node2" class="node">
<title>b</title>
<ellipse fill="none" stroke="#000000" cx="209.8782" cy="-162" rx="70.0944" ry="18"/>
<text text-anchor="middle" x="209.8782" y="-157.8" font-family="Times,serif" font-size="14.00" fill="#000000">intelligent&#45;lims</text>
</g>
<!-- a&#45;&gt;b -->
<g id="edge1" class="edge">
<title>a&#45;&gt;b</title>
<path fill="none" stroke="#000000" d="M209.8782,-215.8314C209.8782,-208.131 209.8782,-198.9743 209.8782,-190.4166"/>
<polygon fill="#000000" stroke="#000000" points="213.3783,-190.4132 209.8782,-180.4133 206.3783,-190.4133 213.3783,-190.4132"/>
</g>
<!-- c -->
<g id="node3" class="node">
<title>c</title>
<ellipse fill="none" stroke="#000000" cx="67.8782" cy="-90" rx="67.7567" ry="18"/>
<text text-anchor="middle" x="67.8782" y="-85.8" font-family="Times,serif" font-size="14.00" fill="#000000">labvantage&#45;api</text>
</g>
<!-- b&#45;&gt;c -->
<g id="edge2" class="edge">
<title>b&#45;&gt;c</title>
<path fill="none" stroke="#000000" d="M178.0107,-145.8418C157.5477,-135.4662 130.7779,-121.8928 108.755,-110.7262"/>
<polygon fill="#000000" stroke="#000000" points="110.1413,-107.505 99.6395,-106.1043 106.9757,-113.7483 110.1413,-107.505"/>
</g>
<!-- d -->
<g id="node4" class="node">
<title>d</title>
<ellipse fill="none" stroke="#000000" cx="209.8782" cy="-90" rx="56.7174" ry="18"/>
<text text-anchor="middle" x="209.8782" y="-85.8" font-family="Times,serif" font-size="14.00" fill="#000000">labware&#45;api</text>
</g>
<!-- b&#45;&gt;d -->
<g id="edge3" class="edge">
<title>b&#45;&gt;d</title>
<path fill="none" stroke="#000000" d="M209.8782,-143.8314C209.8782,-136.131 209.8782,-126.9743 209.8782,-118.4166"/>
<polygon fill="#000000" stroke="#000000" points="213.3783,-118.4132 209.8782,-108.4133 206.3783,-118.4133 213.3783,-118.4132"/>
</g>
<!-- e -->
<g id="node5" class="node">
<title>e</title>
<ellipse fill="none" stroke="#000000" cx="340.8782" cy="-90" rx="56.758" ry="18"/>
<text text-anchor="middle" x="340.8782" y="-85.8" font-family="Times,serif" font-size="14.00" fill="#000000">nautilus&#45;api</text>
</g>
<!-- b&#45;&gt;e -->
<g id="edge4" class="edge">
<title>b&#45;&gt;e</title>
<path fill="none" stroke="#000000" d="M239.6042,-145.6621C258.4576,-135.2999 283.0153,-121.8026 303.2261,-110.6943"/>
<polygon fill="#000000" stroke="#000000" points="305.0925,-113.6624 312.1702,-105.7784 301.7208,-107.5279 305.0925,-113.6624"/>
</g>
<!-- f -->
<g id="node6" class="node">
<title>f</title>
<ellipse fill="none" stroke="#000000" cx="96.8782" cy="-18" rx="61.3491" ry="18"/>
<text text-anchor="middle" x="96.8782" y="-13.8" font-family="Times,serif" font-size="14.00" fill="#000000">release&#45;score</text>
</g>
<!-- c&#45;&gt;f -->
<g id="edge7" class="edge">
<title>c&#45;&gt;f</title>
<path fill="none" stroke="#000000" d="M75.1962,-71.8314C78.4147,-63.8406 82.2647,-54.2819 85.8214,-45.4514"/>
<polygon fill="#000000" stroke="#000000" points="89.1735,-46.4969 89.6631,-35.9134 82.6804,-43.8816 89.1735,-46.4969"/>
</g>
<!-- d&#45;&gt;f -->
<g id="edge5" class="edge">
<title>d&#45;&gt;f</title>
<path fill="none" stroke="#000000" d="M184.5188,-73.8418C168.7819,-63.8147 148.3577,-50.8011 131.1855,-39.8595"/>
<polygon fill="#000000" stroke="#000000" points="132.8583,-36.7753 122.544,-34.3534 129.0968,-42.6788 132.8583,-36.7753"/>
</g>
<!-- g -->
<g id="node7" class="node">
<title>g</title>
<ellipse fill="none" stroke="#000000" cx="310.8782" cy="-18" rx="76.983" ry="18"/>
<text text-anchor="middle" x="310.8782" y="-13.8" font-family="Times,serif" font-size="14.00" fill="#000000">calibration&#45;curve</text>
</g>
<!-- d&#45;&gt;g -->
<g id="edge6" class="edge">
<title>d&#45;&gt;g</title>
<path fill="none" stroke="#000000" d="M233.0497,-73.4817C246.4866,-63.9029 263.6175,-51.6908 278.3847,-41.1637"/>
<polygon fill="#000000" stroke="#000000" points="280.6493,-43.8477 286.7604,-35.1929 276.586,-38.1477 280.6493,-43.8477"/>
</g>
<!-- e&#45;&gt;g -->
<g id="edge8" class="edge">
<title>e&#45;&gt;g</title>
<path fill="none" stroke="#000000" d="M333.308,-71.8314C330.029,-63.9617 326.1162,-54.5712 322.4838,-45.8533"/>
<polygon fill="#000000" stroke="#000000" points="325.6274,-44.2979 318.5504,-36.4133 319.1659,-46.9902 325.6274,-44.2979"/>
</g>
</g>
</svg>